<mxfile host="app.diagrams.net" agent="Mozilla/5.0 (Macintosh; Intel Mac OS X 10_15_7) AppleWebKit/537.36 (KHTML, like Gecko) Chrome/129.0.0.0 Safari/537.36" version="24.7.17">
  <diagram name="Page-1" id="Iyqrh0FltAUZ1cvuJnAb">
    <mxGraphModel dx="815" dy="667" grid="1" gridSize="10" guides="1" tooltips="1" connect="1" arrows="1" fold="1" page="1" pageScale="1" pageWidth="850" pageHeight="1100" math="0" shadow="0">
      <root>
        <mxCell id="0" />
        <mxCell id="1" parent="0" />
        <mxCell id="sdoA-YoSTDMVvCHm_c7m-7" style="edgeStyle=orthogonalEdgeStyle;rounded=1;orthogonalLoop=1;jettySize=auto;html=1;labelBackgroundColor=none;strokeColor=#788AA3;fontColor=default;" parent="1" edge="1">
          <mxGeometry relative="1" as="geometry">
            <mxPoint x="480" y="80" as="targetPoint" />
            <mxPoint x="160" y="80" as="sourcePoint" />
            <Array as="points">
              <mxPoint x="290" y="80" />
              <mxPoint x="290" y="80" />
            </Array>
          </mxGeometry>
        </mxCell>
        <mxCell id="sdoA-YoSTDMVvCHm_c7m-17" value="&lt;span style=&quot;font-size: 12px; background-color: rgb(251, 251, 251);&quot;&gt;Get - &quot;/products &quot;&lt;/span&gt;" style="edgeLabel;html=1;align=center;verticalAlign=middle;resizable=0;points=[];rounded=1;labelBackgroundColor=none;fontColor=#46495D;" parent="sdoA-YoSTDMVvCHm_c7m-7" vertex="1" connectable="0">
          <mxGeometry x="-0.0414" y="2" relative="1" as="geometry">
            <mxPoint x="-13" y="-8" as="offset" />
          </mxGeometry>
        </mxCell>
        <mxCell id="sdoA-YoSTDMVvCHm_c7m-4" value="&lt;font style=&quot;font-size: 14px;&quot;&gt;Product&lt;/font&gt;" style="ellipse;whiteSpace=wrap;html=1;aspect=fixed;rounded=1;labelBackgroundColor=none;fillColor=#B2C9AB;strokeColor=#788AA3;fontColor=#46495D;" parent="1" vertex="1">
          <mxGeometry x="10" y="50" width="120" height="120" as="geometry" />
        </mxCell>
        <mxCell id="sdoA-YoSTDMVvCHm_c7m-5" value="&lt;pre style=&quot;color: rgb(0, 0, 0); font-style: normal; font-variant-ligatures: normal; font-variant-caps: normal; font-weight: 400; letter-spacing: normal; orphans: 2; text-indent: 0px; text-transform: none; widows: 2; word-spacing: 0px; -webkit-text-stroke-width: 0px; text-decoration-thickness: initial; text-decoration-style: initial; text-decoration-color: initial; overflow-wrap: break-word; white-space: pre-wrap; font-size: 10px;&quot;&gt;title :       String&lt;br&gt;price :       Number&lt;br&gt;discountPer:  Number&lt;br&gt;ratings:      Number&lt;br&gt;tags:        [String]&lt;br&gt;desc:         String&lt;br&gt;brand:        String&lt;br&gt;sold:         Number&lt;/pre&gt;" style="text;html=1;whiteSpace=wrap;overflow=hidden;rounded=1;align=left;arcSize=49;labelBackgroundColor=none;fontColor=#46495D;" parent="1" vertex="1">
          <mxGeometry x="15" y="170" width="130" height="120" as="geometry" />
        </mxCell>
        <mxCell id="sdoA-YoSTDMVvCHm_c7m-16" style="rounded=1;orthogonalLoop=1;jettySize=auto;html=1;exitX=1.01;exitY=0.59;exitDx=0;exitDy=0;exitPerimeter=0;labelBackgroundColor=none;strokeColor=#788AA3;fontColor=default;" parent="1" source="sdoA-YoSTDMVvCHm_c7m-4" edge="1">
          <mxGeometry relative="1" as="geometry">
            <mxPoint x="480" y="120" as="targetPoint" />
            <mxPoint x="180" y="120" as="sourcePoint" />
          </mxGeometry>
        </mxCell>
        <mxCell id="sdoA-YoSTDMVvCHm_c7m-23" value="Post - &quot;/products &quot;" style="text;html=1;align=center;verticalAlign=middle;resizable=0;points=[];autosize=1;strokeColor=none;fillColor=none;rounded=1;labelBackgroundColor=none;fontColor=#46495D;" parent="1" vertex="1">
          <mxGeometry x="230" y="90" width="120" height="30" as="geometry" />
        </mxCell>
        <mxCell id="sdoA-YoSTDMVvCHm_c7m-25" value="" style="edgeStyle=segmentEdgeStyle;endArrow=classic;html=1;curved=0;rounded=1;endSize=8;startSize=8;sourcePerimeterSpacing=0;targetPerimeterSpacing=0;labelBackgroundColor=none;strokeColor=#788AA3;fontColor=default;" parent="1" edge="1">
          <mxGeometry width="100" relative="1" as="geometry">
            <mxPoint x="160" y="80" as="sourcePoint" />
            <mxPoint x="480" y="40" as="targetPoint" />
            <Array as="points">
              <mxPoint x="160" y="40" />
            </Array>
          </mxGeometry>
        </mxCell>
        <mxCell id="sdoA-YoSTDMVvCHm_c7m-26" value="&lt;blockquote style=&quot;margin: 0 0 0 40px; border: none; padding: 0px;&quot;&gt;Get - &quot; /products/:id &quot;&lt;/blockquote&gt;" style="text;html=1;align=center;verticalAlign=middle;resizable=0;points=[];autosize=1;strokeColor=none;fillColor=none;rounded=1;labelBackgroundColor=none;fontColor=#46495D;" parent="1" vertex="1">
          <mxGeometry x="195" y="10" width="170" height="30" as="geometry" />
        </mxCell>
        <mxCell id="sdoA-YoSTDMVvCHm_c7m-36" value="" style="endArrow=classic;html=1;rounded=1;labelBackgroundColor=none;strokeColor=#788AA3;fontColor=default;" parent="1" edge="1">
          <mxGeometry width="50" height="50" relative="1" as="geometry">
            <mxPoint x="160" y="160" as="sourcePoint" />
            <mxPoint x="480" y="160" as="targetPoint" />
            <Array as="points" />
          </mxGeometry>
        </mxCell>
        <mxCell id="sdoA-YoSTDMVvCHm_c7m-39" value="" style="endArrow=classic;html=1;rounded=1;labelBackgroundColor=none;strokeColor=#788AA3;fontColor=default;" parent="1" edge="1">
          <mxGeometry width="50" height="50" relative="1" as="geometry">
            <mxPoint x="160" y="200" as="sourcePoint" />
            <mxPoint x="480" y="200" as="targetPoint" />
          </mxGeometry>
        </mxCell>
        <mxCell id="sdoA-YoSTDMVvCHm_c7m-41" value="&lt;span style=&quot;color: rgb(0, 0, 0); font-family: Helvetica; font-size: 12px; font-style: normal; font-variant-ligatures: normal; font-variant-caps: normal; font-weight: 400; letter-spacing: normal; orphans: 2; text-indent: 0px; text-transform: none; widows: 2; word-spacing: 0px; -webkit-text-stroke-width: 0px; white-space: nowrap; background-color: rgb(251, 251, 251); text-decoration-thickness: initial; text-decoration-style: initial; text-decoration-color: initial; float: none; display: inline !important;&quot;&gt;Put - &quot;/products/:id&quot;&lt;span&gt;&amp;nbsp;&lt;/span&gt;&lt;/span&gt;" style="text;whiteSpace=wrap;html=1;align=left;strokeColor=none;rounded=1;labelBackgroundColor=none;fontColor=#46495D;" parent="1" vertex="1">
          <mxGeometry x="240" y="130" width="110" height="30" as="geometry" />
        </mxCell>
        <mxCell id="sdoA-YoSTDMVvCHm_c7m-42" value="Delete - &quot;/products/:id&quot;" style="text;html=1;align=center;verticalAlign=middle;resizable=0;points=[];autosize=1;strokeColor=none;fillColor=none;rounded=1;labelBackgroundColor=none;fontColor=#46495D;" parent="1" vertex="1">
          <mxGeometry x="230.5" y="170" width="140" height="30" as="geometry" />
        </mxCell>
        <mxCell id="sdoA-YoSTDMVvCHm_c7m-43" value="" style="endArrow=none;html=1;rounded=1;labelBackgroundColor=none;strokeColor=#788AA3;fontColor=default;" parent="1" edge="1">
          <mxGeometry width="50" height="50" relative="1" as="geometry">
            <mxPoint x="160" y="200" as="sourcePoint" />
            <mxPoint x="160" y="80" as="targetPoint" />
          </mxGeometry>
        </mxCell>
        <mxCell id="sdoA-YoSTDMVvCHm_c7m-44" value="&lt;font style=&quot;font-size: 14px;&quot;&gt;User&lt;/font&gt;" style="ellipse;whiteSpace=wrap;html=1;aspect=fixed;rounded=1;labelBackgroundColor=none;fillColor=#B2C9AB;strokeColor=#788AA3;fontColor=#46495D;" parent="1" vertex="1">
          <mxGeometry x="10" y="380" width="110" height="110" as="geometry" />
        </mxCell>
        <mxCell id="sdoA-YoSTDMVvCHm_c7m-45" style="edgeStyle=orthogonalEdgeStyle;rounded=1;orthogonalLoop=1;jettySize=auto;html=1;labelBackgroundColor=none;strokeColor=#788AA3;fontColor=default;" parent="1" edge="1">
          <mxGeometry relative="1" as="geometry">
            <mxPoint x="480" y="360" as="targetPoint" />
            <mxPoint x="160" y="360" as="sourcePoint" />
            <Array as="points">
              <mxPoint x="281.25" y="360.00000000000006" />
              <mxPoint x="281.25" y="360.00000000000006" />
            </Array>
          </mxGeometry>
        </mxCell>
        <mxCell id="sdoA-YoSTDMVvCHm_c7m-47" style="rounded=1;orthogonalLoop=1;jettySize=auto;html=1;exitX=1.01;exitY=0.59;exitDx=0;exitDy=0;exitPerimeter=0;labelBackgroundColor=none;strokeColor=#788AA3;fontColor=default;" parent="1" edge="1">
          <mxGeometry relative="1" as="geometry">
            <mxPoint x="480.25" y="440" as="targetPoint" />
            <mxPoint x="120.75" y="441.00000000000006" as="sourcePoint" />
          </mxGeometry>
        </mxCell>
        <mxCell id="sdoA-YoSTDMVvCHm_c7m-48" value="Post - &quot;/user/register &quot;" style="text;html=1;align=center;verticalAlign=middle;resizable=0;points=[];autosize=1;strokeColor=none;fillColor=none;rounded=1;labelBackgroundColor=none;fontColor=#46495D;" parent="1" vertex="1">
          <mxGeometry x="216.75" y="370.00000000000006" width="140" height="30" as="geometry" />
        </mxCell>
        <mxCell id="sdoA-YoSTDMVvCHm_c7m-49" value="" style="edgeStyle=segmentEdgeStyle;endArrow=classic;html=1;curved=0;rounded=1;endSize=8;startSize=8;sourcePerimeterSpacing=0;targetPerimeterSpacing=0;labelBackgroundColor=none;strokeColor=#788AA3;fontColor=default;" parent="1" edge="1">
          <mxGeometry width="100" relative="1" as="geometry">
            <mxPoint x="160" y="361.00000000000006" as="sourcePoint" />
            <mxPoint x="488.75" y="321" as="targetPoint" />
            <Array as="points">
              <mxPoint x="160" y="321.00000000000006" />
            </Array>
          </mxGeometry>
        </mxCell>
        <mxCell id="sdoA-YoSTDMVvCHm_c7m-50" value="" style="endArrow=classic;html=1;rounded=1;labelBackgroundColor=none;strokeColor=#788AA3;fontColor=default;" parent="1" edge="1">
          <mxGeometry width="50" height="50" relative="1" as="geometry">
            <mxPoint x="160" y="400" as="sourcePoint" />
            <mxPoint x="480" y="400" as="targetPoint" />
            <Array as="points" />
          </mxGeometry>
        </mxCell>
        <mxCell id="sdoA-YoSTDMVvCHm_c7m-51" value="" style="endArrow=classic;html=1;rounded=1;labelBackgroundColor=none;strokeColor=#788AA3;fontColor=default;" parent="1" edge="1">
          <mxGeometry width="50" height="50" relative="1" as="geometry">
            <mxPoint x="160" y="480" as="sourcePoint" />
            <mxPoint x="480" y="480" as="targetPoint" />
          </mxGeometry>
        </mxCell>
        <mxCell id="sdoA-YoSTDMVvCHm_c7m-55" style="edgeStyle=elbowEdgeStyle;rounded=1;orthogonalLoop=1;jettySize=auto;html=1;labelBackgroundColor=none;strokeColor=#788AA3;fontColor=default;" parent="1" source="sdoA-YoSTDMVvCHm_c7m-52" edge="1">
          <mxGeometry relative="1" as="geometry">
            <mxPoint x="331.75" y="425" as="targetPoint" />
          </mxGeometry>
        </mxCell>
        <mxCell id="sdoA-YoSTDMVvCHm_c7m-52" value="&lt;span style=&quot;color: rgb(0, 0, 0); font-family: Helvetica; font-size: 12px; font-style: normal; font-variant-ligatures: normal; font-variant-caps: normal; font-weight: 400; letter-spacing: normal; orphans: 2; text-indent: 0px; text-transform: none; widows: 2; word-spacing: 0px; -webkit-text-stroke-width: 0px; white-space: nowrap; background-color: rgb(251, 251, 251); text-decoration-thickness: initial; text-decoration-style: initial; text-decoration-color: initial; float: none; display: inline !important;&quot;&gt;&amp;nbsp; Put - &quot;/user/:id&quot;&lt;span&gt;&amp;nbsp;&lt;/span&gt;&lt;/span&gt;" style="text;whiteSpace=wrap;html=1;align=left;strokeColor=none;rounded=1;labelBackgroundColor=none;fontColor=#46495D;" parent="1" vertex="1">
          <mxGeometry x="221.25" y="410" width="120.5" height="30" as="geometry" />
        </mxCell>
        <mxCell id="sdoA-YoSTDMVvCHm_c7m-53" value="&amp;nbsp; &amp;nbsp; &amp;nbsp;Delete - &quot;/user/:id&quot;" style="text;html=1;align=center;verticalAlign=middle;resizable=0;points=[];autosize=1;strokeColor=none;fillColor=none;rounded=1;labelBackgroundColor=none;fontColor=#46495D;" parent="1" vertex="1">
          <mxGeometry x="201.25" y="450.00000000000006" width="140" height="30" as="geometry" />
        </mxCell>
        <mxCell id="sdoA-YoSTDMVvCHm_c7m-54" value="" style="endArrow=none;html=1;rounded=1;labelBackgroundColor=none;strokeColor=#788AA3;fontColor=default;" parent="1" edge="1">
          <mxGeometry width="50" height="50" relative="1" as="geometry">
            <mxPoint x="160" y="561" as="sourcePoint" />
            <mxPoint x="160.5" y="361.00000000000006" as="targetPoint" />
          </mxGeometry>
        </mxCell>
        <mxCell id="sdoA-YoSTDMVvCHm_c7m-56" value="" style="endArrow=classic;html=1;rounded=1;labelBackgroundColor=none;strokeColor=#788AA3;fontColor=default;" parent="1" edge="1">
          <mxGeometry width="50" height="50" relative="1" as="geometry">
            <mxPoint x="160" y="520" as="sourcePoint" />
            <mxPoint x="480" y="520" as="targetPoint" />
          </mxGeometry>
        </mxCell>
        <mxCell id="sdoA-YoSTDMVvCHm_c7m-59" value="" style="endArrow=classic;html=1;rounded=1;labelBackgroundColor=none;strokeColor=#788AA3;fontColor=default;" parent="1" edge="1">
          <mxGeometry width="50" height="50" relative="1" as="geometry">
            <mxPoint x="160" y="560" as="sourcePoint" />
            <mxPoint x="480" y="560" as="targetPoint" />
          </mxGeometry>
        </mxCell>
        <mxCell id="sdoA-YoSTDMVvCHm_c7m-64" style="edgeStyle=elbowEdgeStyle;rounded=1;orthogonalLoop=1;jettySize=auto;html=1;entryX=0.917;entryY=0.478;entryDx=0;entryDy=0;entryPerimeter=0;labelBackgroundColor=none;strokeColor=#788AA3;fontColor=default;" parent="1" edge="1">
          <mxGeometry relative="1" as="geometry">
            <mxPoint x="77.5" y="458.4159999999998" as="sourcePoint" />
            <mxPoint x="77.50999999999999" y="458.67999999999995" as="targetPoint" />
          </mxGeometry>
        </mxCell>
        <mxCell id="sdoA-YoSTDMVvCHm_c7m-68" value="&lt;pre style=&quot;overflow-wrap: break-word; text-wrap: wrap;&quot;&gt;&lt;font style=&quot;font-size: 10px;&quot;&gt;fname : String&lt;br/&gt;lname : String&lt;br/&gt;email : String&lt;br/&gt;password: String&lt;br/&gt;role : String&lt;br/&gt;houseNumber : String&lt;br/&gt;city: String&lt;br/&gt;state: String&lt;br/&gt;phone:String&lt;/font&gt;&lt;/pre&gt;" style="text;html=1;align=left;verticalAlign=middle;whiteSpace=wrap;rounded=1;labelBackgroundColor=none;fontColor=#46495D;" parent="1" vertex="1">
          <mxGeometry x="15" y="500" width="140" height="140" as="geometry" />
        </mxCell>
        <mxCell id="ka6vlJhYsd9tMB2H-Mrz-2" value="Tags" style="ellipse;whiteSpace=wrap;html=1;aspect=fixed;rounded=1;labelBackgroundColor=none;fillColor=#B2C9AB;strokeColor=#788AA3;fontColor=#46495D;" vertex="1" parent="1">
          <mxGeometry x="15" y="700" width="125" height="125" as="geometry" />
        </mxCell>
        <mxCell id="ka6vlJhYsd9tMB2H-Mrz-3" value="" style="endArrow=classic;html=1;rounded=1;fontSize=12;startSize=8;endSize=8;curved=1;labelBackgroundColor=none;strokeColor=#788AA3;fontColor=default;" edge="1" parent="1">
          <mxGeometry width="50" height="50" relative="1" as="geometry">
            <mxPoint x="160" y="800" as="sourcePoint" />
            <mxPoint x="480" y="800" as="targetPoint" />
          </mxGeometry>
        </mxCell>
        <mxCell id="ka6vlJhYsd9tMB2H-Mrz-4" value="" style="shape=stencil(fZbdcgIhDIWfZm8zQAg/17Z9j85U606tdqz9e/tmZ0c0uJ47xP0I5JwEBl59bp8/1kNwn6fj4W39M76ctgM/DCGM++36OJ50NPDjwKvN4bh+PR6+9i/z74/n6ctp9H74nlb4nbmSKZeJCu5vngmZ6jzzNAO7cX8FVKEsBuBKrgKg9oAE8gkCbLeUhEoEQKSUDZDLeWYRKIl8MEDRmHwfyBrBG6Amyu4+kDxxMoB3jhwgYu7TVAsVkFcWCs4CTBEoF4RctKeOxHIf8IXYpikHikAIf+MNUW94AGSSaoAoFIE3AlOyeWU+p2E5S9yfQZcQILVuQOwZdJNoS9Ls3wA5u2XZTIHECqeJ9kDpSaauRiNVcAY1QhdBzeLBli5WazpkSsBLV25uRaqWRyFawTQzRRIQYirJzq5atkBqLfouwqUxLBepthWb10vrWZY6UOAeyKCCtDV625mm9gmUC4Wc3VLJMMIE1BsA2FW9JraVlQB7n3c9oMKhCLEvIM1zBPZ25/umNQ1tVEC2G+fFCC8g398O2hNQuQlVu752DBfA+q0ptnqO5JFmeuIuo9DY7KjY71UxdJV4EntifPWorW++R/dC4t7V3DlIB5cHx2bc7eb3yvX//QNFp+bHDT/+Aw==);lineShape=1;strokeColor=#788AA3;rounded=1;labelBackgroundColor=none;fillColor=#B2C9AB;fontColor=#46495D;" vertex="1" parent="1">
          <mxGeometry x="700.8679608424759" y="388.8753124585194" width="4.672539772115215" height="4.665236216357243" as="geometry" />
        </mxCell>
        <mxCell id="ka6vlJhYsd9tMB2H-Mrz-5" value="" style="endArrow=none;html=1;rounded=0;strokeColor=#788AA3;fontSize=12;fontColor=#46495D;startSize=8;endSize=8;curved=1;fillColor=#B2C9AB;" edge="1" parent="1">
          <mxGeometry width="50" height="50" relative="1" as="geometry">
            <mxPoint x="160" y="880" as="sourcePoint" />
            <mxPoint x="160" y="720" as="targetPoint" />
          </mxGeometry>
        </mxCell>
        <mxCell id="ka6vlJhYsd9tMB2H-Mrz-6" value="" style="endArrow=classic;html=1;rounded=0;strokeColor=#788AA3;fontSize=12;fontColor=#46495D;startSize=8;endSize=8;curved=1;fillColor=#B2C9AB;" edge="1" parent="1">
          <mxGeometry width="50" height="50" relative="1" as="geometry">
            <mxPoint x="160" y="720" as="sourcePoint" />
            <mxPoint x="480" y="720" as="targetPoint" />
          </mxGeometry>
        </mxCell>
        <mxCell id="ka6vlJhYsd9tMB2H-Mrz-7" value="" style="endArrow=classic;html=1;rounded=0;strokeColor=#788AA3;fontSize=12;fontColor=#46495D;startSize=8;endSize=8;curved=1;fillColor=#B2C9AB;" edge="1" parent="1">
          <mxGeometry width="50" height="50" relative="1" as="geometry">
            <mxPoint x="140" y="760" as="sourcePoint" />
            <mxPoint x="480" y="760" as="targetPoint" />
          </mxGeometry>
        </mxCell>
        <mxCell id="ka6vlJhYsd9tMB2H-Mrz-8" value="" style="endArrow=classic;html=1;rounded=0;strokeColor=#788AA3;fontSize=12;fontColor=#46495D;startSize=8;endSize=8;curved=1;fillColor=#B2C9AB;" edge="1" parent="1">
          <mxGeometry width="50" height="50" relative="1" as="geometry">
            <mxPoint x="160" y="840" as="sourcePoint" />
            <mxPoint x="480" y="840" as="targetPoint" />
          </mxGeometry>
        </mxCell>
        <mxCell id="ka6vlJhYsd9tMB2H-Mrz-9" value="" style="endArrow=classic;html=1;rounded=0;strokeColor=#788AA3;fontSize=12;fontColor=#46495D;startSize=8;endSize=8;curved=1;fillColor=#B2C9AB;" edge="1" parent="1">
          <mxGeometry width="50" height="50" relative="1" as="geometry">
            <mxPoint x="160" y="880" as="sourcePoint" />
            <mxPoint x="480" y="880" as="targetPoint" />
            <Array as="points" />
          </mxGeometry>
        </mxCell>
        <mxCell id="ka6vlJhYsd9tMB2H-Mrz-10" value="Get : &quot;/tag&quot;" style="text;html=1;align=center;verticalAlign=middle;resizable=0;points=[];autosize=1;strokeColor=none;fillColor=none;fontSize=16;fontColor=#46495D;" vertex="1" parent="1">
          <mxGeometry x="224" y="691" width="100" height="30" as="geometry" />
        </mxCell>
        <mxCell id="ka6vlJhYsd9tMB2H-Mrz-11" value="Get : &quot;/tag/product/:id&quot;" style="text;html=1;align=center;verticalAlign=middle;resizable=0;points=[];autosize=1;strokeColor=none;fillColor=none;fontSize=16;fontColor=#46495D;" vertex="1" parent="1">
          <mxGeometry x="205" y="731" width="180" height="30" as="geometry" />
        </mxCell>
        <mxCell id="ka6vlJhYsd9tMB2H-Mrz-18" value="Authorization" style="ellipse;whiteSpace=wrap;html=1;aspect=fixed;strokeColor=#788AA3;fontColor=#46495D;fillColor=#B2C9AB;" vertex="1" parent="1">
          <mxGeometry x="730" y="830" width="80" height="80" as="geometry" />
        </mxCell>
        <mxCell id="ka6vlJhYsd9tMB2H-Mrz-19" value="&lt;font style=&quot;font-size: 12px;&quot;&gt;&quot;/login&quot;&lt;/font&gt;" style="text;html=1;align=center;verticalAlign=middle;resizable=0;points=[];autosize=1;strokeColor=none;fillColor=none;fontSize=16;fontColor=#46495D;" vertex="1" parent="1">
          <mxGeometry x="235" y="490" width="60" height="30" as="geometry" />
        </mxCell>
        <mxCell id="ka6vlJhYsd9tMB2H-Mrz-23" value="&lt;font style=&quot;font-size: 12px;&quot;&gt;&quot;/logout&quot;&lt;/font&gt;" style="text;html=1;align=center;verticalAlign=middle;resizable=0;points=[];autosize=1;strokeColor=none;fillColor=none;fontSize=16;fontColor=#46495D;" vertex="1" parent="1">
          <mxGeometry x="235" y="535" width="70" height="30" as="geometry" />
        </mxCell>
        <mxCell id="ka6vlJhYsd9tMB2H-Mrz-24" value="&lt;font style=&quot;font-size: 12px;&quot;&gt;&quot;/refreshToken&quot;&lt;/font&gt;" style="text;html=1;align=center;verticalAlign=middle;resizable=0;points=[];autosize=1;strokeColor=none;fillColor=none;fontSize=16;fontColor=#46495D;" vertex="1" parent="1">
          <mxGeometry x="231.75" y="331" width="100" height="30" as="geometry" />
        </mxCell>
        <mxCell id="ka6vlJhYsd9tMB2H-Mrz-26" value="" style="endArrow=classic;startArrow=classic;html=1;rounded=0;strokeColor=#788AA3;fontSize=12;fontColor=#46495D;startSize=8;endSize=8;curved=1;fillColor=#B2C9AB;exitX=0.372;exitY=0.023;exitDx=0;exitDy=0;exitPerimeter=0;" edge="1" parent="1" source="ka6vlJhYsd9tMB2H-Mrz-18">
          <mxGeometry width="50" height="50" relative="1" as="geometry">
            <mxPoint x="330" y="580" as="sourcePoint" />
            <mxPoint x="480" y="560" as="targetPoint" />
          </mxGeometry>
        </mxCell>
        <mxCell id="ka6vlJhYsd9tMB2H-Mrz-27" value="" style="endArrow=classic;startArrow=classic;html=1;rounded=0;strokeColor=#788AA3;fontSize=12;fontColor=#46495D;startSize=8;endSize=8;curved=1;fillColor=#B2C9AB;" edge="1" parent="1">
          <mxGeometry width="50" height="50" relative="1" as="geometry">
            <mxPoint x="760" y="830" as="sourcePoint" />
            <mxPoint x="480" y="360" as="targetPoint" />
          </mxGeometry>
        </mxCell>
        <mxCell id="ka6vlJhYsd9tMB2H-Mrz-28" value="" style="endArrow=classic;startArrow=classic;html=1;rounded=0;strokeColor=#788AA3;fontSize=12;fontColor=#46495D;startSize=8;endSize=8;curved=1;fillColor=#B2C9AB;" edge="1" parent="1">
          <mxGeometry width="50" height="50" relative="1" as="geometry">
            <mxPoint x="760" y="830" as="sourcePoint" />
            <mxPoint x="480" y="520" as="targetPoint" />
          </mxGeometry>
        </mxCell>
        <mxCell id="ka6vlJhYsd9tMB2H-Mrz-30" value="Delete : &quot;/tag/:id&quot;" style="text;html=1;align=center;verticalAlign=middle;resizable=0;points=[];autosize=1;strokeColor=none;fillColor=none;fontSize=16;fontColor=#46495D;" vertex="1" parent="1">
          <mxGeometry x="244" y="771" width="140" height="30" as="geometry" />
        </mxCell>
      </root>
    </mxGraphModel>
  </diagram>
</mxfile>
